<?xml version="1.0" standalone="no"?>
<!DOCTYPE svg PUBLIC "-//W3C//DTD SVG 20010904//EN"
 "http://www.w3.org/TR/2001/REC-SVG-20010904/DTD/svg10.dtd">
<svg version="1.0" xmlns="http://www.w3.org/2000/svg"
 width="700.000000pt" height="700.000000pt" viewBox="0 0 700.000000 700.000000"
 preserveAspectRatio="xMidYMid meet">
<metadata>
Created by potrace 1.11, written by Peter Selinger 2001-2013
</metadata>
<g transform="translate(0.000000,700.000000) scale(0.100000,-0.100000)"
fill="#000000" stroke="none">
<path d="M460 5590 l0 -580 688 0 689 0 1 -2087 c0 -1149 1 -2094 1 -2100 1
-10 117 -13 546 -13 l545 0 0 2100 0 2100 1805 0 1805 0 0 580 0 580 -3040 0
-3040 0 0 -580z"/>
<path d="M3500 2800 l0 -1990 415 0 415 0 0 710 0 710 417 2 416 3 0 310 c-1
171 -2 322 -2 338 l-1 27 -415 0 -415 0 0 350 0 350 418 0 417 0 -2 582 c-1
321 -2 586 -2 591 -1 4 -374 7 -831 7 l-830 0 0 -1990z"/>
</g>
</svg>
